<svg xmlns="http://www.w3.org/2000/svg" width="504" height="400" fill="none" viewBox="0 0 504 400"><g clip-path="url(#clip0_26:918)"><path fill="#A9A9A9" d="M274.219 40.7956C280.791 40.7956 286.119 35.1202 286.119 28.1192C286.119 21.1182 280.791 15.4427 274.219 15.4427C267.647 15.4427 262.319 21.1182 262.319 28.1192C262.319 35.1202 267.647 40.7956 274.219 40.7956Z"/><path fill="#fff" d="M273.04 32.9548C272.772 32.9553 272.512 32.8631 272.298 32.692L272.284 32.6814L269.488 30.4024C269.358 30.2966 269.249 30.1647 269.168 30.0142C269.086 29.8637 269.033 29.6975 269.012 29.5251C268.99 29.3528 269.001 29.1776 269.043 29.0096C269.085 28.8417 269.158 28.6842 269.257 28.5463C269.357 28.4083 269.481 28.2925 269.622 28.2055C269.763 28.1185 269.919 28.062 270.081 28.0392C270.243 28.0165 270.407 28.0279 270.565 28.0728C270.723 28.1177 270.87 28.1953 271 28.3011L272.811 29.7808L277.092 23.832C277.191 23.694 277.315 23.5783 277.456 23.4913C277.597 23.4044 277.753 23.3479 277.915 23.3252C278.077 23.3024 278.241 23.3138 278.399 23.3587C278.556 23.4036 278.704 23.4812 278.834 23.5869L278.834 23.5872L278.807 23.6265L278.835 23.5872C279.096 23.801 279.267 24.1165 279.31 24.4644C279.353 24.8124 279.265 25.1643 279.064 25.443L274.03 32.4369C273.913 32.5981 273.763 32.7285 273.592 32.818C273.421 32.9076 273.232 32.9538 273.041 32.9532L273.04 32.9548Z"/><path fill="#A9A9A9" d="M274.219 126.492C280.791 126.492 286.119 120.817 286.119 113.816C286.119 106.815 280.791 101.139 274.219 101.139C267.647 101.139 262.319 106.815 262.319 113.816C262.319 120.817 267.647 126.492 274.219 126.492Z"/><path fill="#fff" d="M273.04 118.651C272.772 118.652 272.512 118.56 272.298 118.388L272.284 118.378L269.488 116.099C269.358 115.993 269.249 115.861 269.168 115.711C269.086 115.56 269.033 115.394 269.012 115.222C268.99 115.049 269.001 114.874 269.043 114.706C269.085 114.538 269.158 114.381 269.257 114.243C269.357 114.105 269.481 113.989 269.622 113.902C269.763 113.815 269.919 113.758 270.081 113.736C270.243 113.713 270.407 113.724 270.565 113.769C270.723 113.814 270.87 113.892 271 113.998L272.811 115.477L277.092 109.528C277.191 109.391 277.315 109.275 277.456 109.188C277.597 109.101 277.753 109.044 277.915 109.022C278.077 108.999 278.241 109.01 278.399 109.055C278.556 109.1 278.704 109.178 278.834 109.283L278.834 109.284L278.807 109.323L278.835 109.284C279.096 109.498 279.267 109.813 279.31 110.161C279.353 110.509 279.265 110.861 279.064 111.139L274.03 118.133C273.913 118.295 273.763 118.425 273.592 118.515C273.421 118.604 273.232 118.65 273.041 118.65L273.04 118.651Z"/><path fill="#A9A9A9" d="M304.104 247.019C304.065 245.969 304.244 244.921 304.626 243.952C305.008 242.982 305.586 242.113 306.317 241.407C307.049 240.701 307.917 240.174 308.86 239.864C309.804 239.553 310.799 239.467 311.777 239.611L322.676 216.833L328.834 228.386L317.541 248.245C317.205 249.98 316.283 251.522 314.951 252.581C313.618 253.64 311.967 254.141 310.311 253.99C308.655 253.839 307.108 253.046 305.964 251.761C304.82 250.476 304.158 248.789 304.104 247.02L304.104 247.019Z"/><path fill="#A9A9A9" d="M354.915 390.451L346.362 390.45L342.293 355.307L354.916 355.308L354.915 390.451Z"/><path fill="#494949" d="M357.096 399.282L329.517 399.281V398.91C329.518 395.877 330.649 392.969 332.662 390.824C334.675 388.68 337.405 387.475 340.252 387.475H340.252L357.096 387.476L357.096 399.282Z"/><path fill="#A9A9A9" d="M401.281 390.451L392.727 390.45L388.659 355.307L401.282 355.308L401.281 390.451Z"/><path fill="#494949" d="M403.462 399.282L375.883 399.281V398.91C375.883 395.877 377.014 392.969 379.027 390.824C381.041 388.68 383.771 387.475 386.618 387.475H386.618L403.462 387.476L403.462 399.282Z"/><path fill="#A9A9A9" fill-opacity=".5" d="M317.241 227.195L313.507 233.824C313.507 233.824 319.73 233.824 320.975 243.768L325.953 237.139L317.241 227.195Z"/><path fill="#494949" d="M382.583 213.274C382.583 213.274 392.539 241.116 394.406 258.352C396.273 275.588 399.385 321.328 399.385 321.328L405.608 380.327L388.183 382.979L380.716 323.317L363.914 264.318L360.18 323.317L357.068 377.013L340.889 377.676L339.644 321.991L332.799 251.06L336.532 217.252L382.583 213.274Z"/><path fill="#A9A9A9" d="M354.579 129.159C363.171 129.159 370.137 121.74 370.137 112.587C370.137 103.434 363.171 96.0139 354.579 96.0139C345.987 96.0139 339.022 103.434 339.022 112.587C339.022 121.74 345.987 129.159 354.579 129.159Z"/><path fill="#A9A9A9" fill-opacity=".5" d="M370.447 128.754L376.671 133.393L384.761 220.235L334.354 221.56L341.2 161.236L347.423 144L351.915 137.674L370.447 128.754Z"/><path fill="#494949" d="M371.692 191.067L373.597 131.101C373.597 131.101 377.293 131.405 378.538 133.394C379.782 135.382 400.318 139.36 400.318 139.36L396.584 201.01C396.584 201.01 412.142 250.066 406.541 252.717C400.941 255.369 390.984 254.706 390.984 254.706L371.692 191.067Z"/><path fill="#494949" d="M341.511 183.443L348.112 143.029L333.421 153.612L337.155 182.78L334.043 202.668C334.043 202.668 322.22 257.689 325.953 259.678C329.687 261.667 334.043 259.678 334.043 259.678L341.511 203.993V183.443Z"/><path fill="#494949" d="M337.777 152.287L333.421 153.612L331.554 180.129L328.443 203.331L313.507 231.836C313.507 231.836 320.975 226.532 324.086 241.779L340.534 211.274L337.777 152.287Z"/><path fill="#494949" d="M367.603 96.7964L370.537 95.5453C370.537 95.5453 364.403 88.3512 355.868 88.9768L358.269 86.1618C358.269 86.1618 352.401 83.6595 347.067 90.228C344.263 93.6808 341.019 97.7395 338.996 102.312H335.855L337.166 105.387L332.576 108.463L337.287 107.911C337.006 109.595 336.963 111.314 337.159 113.012C337.361 114.711 338.175 116.259 339.428 117.33V117.33C339.428 117.33 343.067 109.308 343.067 108.057V111.184C343.067 111.184 346 108.369 346 106.493L347.601 108.682L348.401 105.242L358.269 108.682L356.668 105.867L362.803 106.806L360.402 103.365L369.899 117.572C369.899 117.572 375.338 101.488 367.603 96.7964Z"/><path fill="#A9A9A9" d="M371.626 241.583C371.78 240.544 372.145 239.554 372.697 238.681C373.249 237.809 373.974 237.077 374.82 236.535C375.666 235.993 376.614 235.656 377.596 235.547C378.578 235.438 379.57 235.559 380.504 235.903L395.346 215.812L399.282 228.418L384.584 245.564C383.938 247.196 382.753 248.519 381.253 249.282C379.753 250.045 378.042 250.195 376.445 249.705C374.848 249.214 373.475 248.116 372.587 246.619C371.699 245.122 371.357 243.33 371.626 241.583V241.583Z"/><path fill="#A9A9A9" fill-opacity=".5" d="M396.896 234.487L391.295 241.779L383.827 227.858L386.938 221.892L396.896 234.487Z"/><path fill="#494949" d="M395.651 141.68L400.629 139.028C400.629 139.028 404.363 144.332 404.985 148.972C405.608 153.612 408.719 159.579 408.719 162.893C408.719 166.208 417.431 197.364 417.431 197.364L397.518 240.453C397.518 240.453 393.162 224.544 383.827 223.218L399.385 200.016L390.673 183.443L395.651 141.68Z"/><path fill="#A9A9A9" d="M503.372 399.691H263.917C263.75 399.691 263.59 399.621 263.472 399.495C263.354 399.369 263.288 399.199 263.288 399.022C263.288 398.844 263.354 398.674 263.472 398.548C263.59 398.423 263.75 398.352 263.917 398.352H503.372C503.538 398.352 503.698 398.423 503.816 398.548C503.934 398.674 504 398.844 504 399.022C504 399.199 503.934 399.369 503.816 399.495C503.698 399.621 503.538 399.691 503.372 399.691Z"/><path fill="#fff" d="M229.399 141.935H-1.90735e-06V85.6965H229.399V141.935Z"/><path fill="#A9A9A9" d="M33.1075 104.292C32.5153 104.293 31.9478 104.544 31.5294 104.99C31.1111 105.437 30.8761 106.042 30.8761 106.673C30.8761 107.303 31.1111 107.908 31.5294 108.355C31.9478 108.801 32.5153 109.053 33.1075 109.054H196.301C196.893 109.053 197.461 108.801 197.879 108.355C198.297 107.908 198.532 107.303 198.532 106.673C198.532 106.042 198.297 105.437 197.879 104.99C197.461 104.544 196.893 104.293 196.301 104.292H33.1075Z"/><path fill="#A9A9A9" d="M33.1075 118.578C32.814 118.577 32.5232 118.638 32.2518 118.757C31.9804 118.876 31.7336 119.051 31.5256 119.272C31.3176 119.492 31.1525 119.754 31.0396 120.043C30.9267 120.332 30.8682 120.641 30.8676 120.954C30.867 121.266 30.9242 121.576 31.036 121.865C31.1477 122.154 31.3118 122.417 31.519 122.639C31.7261 122.86 31.9721 123.036 32.2431 123.157C32.514 123.277 32.8045 123.339 33.0981 123.34H136.271C136.565 123.34 136.856 123.279 137.127 123.16C137.399 123.04 137.646 122.865 137.854 122.644C138.062 122.423 138.227 122.16 138.339 121.871C138.452 121.582 138.51 121.272 138.51 120.959C138.51 120.646 138.452 120.336 138.339 120.047C138.227 119.757 138.062 119.495 137.854 119.274C137.646 119.053 137.399 118.877 137.127 118.758C136.856 118.638 136.565 118.577 136.271 118.578H33.1075Z"/><path fill="#A9A9A9" fill-opacity=".5" d="M229.399 141.935H-1.90735e-06V85.6965H229.399V141.935ZM3.77094 137.918H225.628V89.7135H3.77094V137.918Z"/><path fill="#fff" d="M229.399 227.631H-1.90735e-06V171.393H229.399V227.631Z"/><path fill="#F7F7F7" d="M33.1075 189.988C32.5153 189.989 31.9478 190.24 31.5294 190.687C31.1111 191.133 30.8761 191.738 30.8761 192.369C30.8761 193 31.1111 193.605 31.5294 194.051C31.9478 194.498 32.5153 194.749 33.1075 194.75H196.301C196.893 194.749 197.461 194.498 197.879 194.051C198.297 193.605 198.532 193 198.532 192.369C198.532 191.738 198.297 191.133 197.879 190.687C197.461 190.24 196.893 189.989 196.301 189.988H33.1075Z"/><path fill="#F7F7F7" d="M33.1075 204.274C32.814 204.274 32.5232 204.334 32.2518 204.453C31.9804 204.573 31.7336 204.747 31.5256 204.968C31.3176 205.189 31.1525 205.451 31.0396 205.739C30.9267 206.028 30.8682 206.338 30.8676 206.65C30.867 206.963 30.9242 207.273 31.036 207.562C31.1477 207.851 31.3118 208.114 31.519 208.335C31.7261 208.557 31.9721 208.733 32.2431 208.853C32.514 208.973 32.8045 209.036 33.0981 209.036H136.271C136.565 209.037 136.856 208.976 137.127 208.856C137.399 208.737 137.646 208.561 137.854 208.34C138.062 208.119 138.227 207.856 138.339 207.567C138.452 207.278 138.51 206.968 138.51 206.655C138.51 206.342 138.452 206.032 138.339 205.743C138.227 205.454 138.062 205.191 137.854 204.97C137.646 204.749 137.399 204.574 137.127 204.454C136.856 204.335 136.565 204.274 136.271 204.274H33.1075Z"/><path fill="#A9A9A9" fill-opacity=".5" d="M229.399 227.631H-1.90735e-06V171.393H229.399V227.631ZM3.77094 223.614H225.628V175.41H3.77094V223.614Z"/><path fill="#fff" d="M231.285 56.2383H1.88547V0H231.285V56.2383Z"/><path fill="#A9A9A9" d="M34.993 18.5951C34.4008 18.5961 33.8333 18.8475 33.4149 19.2939C32.9965 19.7403 32.7616 20.3453 32.7616 20.9761C32.7616 21.6069 32.9965 22.2119 33.4149 22.6583C33.8333 23.1047 34.4008 23.3561 34.993 23.3571H198.186C198.779 23.3561 199.346 23.1047 199.765 22.6583C200.183 22.2119 200.418 21.6069 200.418 20.9761C200.418 20.3453 200.183 19.7403 199.765 19.2939C199.346 18.8475 198.779 18.5961 198.186 18.5951H34.993Z"/><path fill="#A9A9A9" d="M34.993 32.8812C34.4002 32.8799 33.8312 33.1295 33.4111 33.575C32.991 34.0206 32.7543 34.6257 32.7531 35.2572C32.7518 35.8887 32.9861 36.4948 33.4044 36.9423C33.8227 37.3898 34.3907 37.6419 34.9835 37.6432H138.156C138.45 37.6438 138.741 37.5826 139.013 37.4632C139.284 37.3437 139.531 37.1684 139.739 36.9473C139.947 36.7261 140.112 36.4635 140.225 36.1743C140.337 35.8852 140.395 35.5752 140.395 35.2622C140.395 34.9492 140.337 34.6393 140.225 34.3501C140.112 34.061 139.947 33.7983 139.739 33.5772C139.531 33.356 139.284 33.1807 139.013 33.0613C138.741 32.9419 138.45 32.8807 138.156 32.8812H34.993Z"/><path fill="#A9A9A9" fill-opacity=".5" d="M231.285 56.2383H1.88547V0H231.285V56.2383ZM5.65642 52.2213H227.514V4.01702H5.65642V52.2213Z"/><path fill="#F7F7F7" d="M464.61 400V351.568C464.61 351.568 482.329 385.904 464.61 400Z"/><path fill="#F7F7F7" d="M465.705 399.991L432.213 367.239C432.213 367.239 467.94 376.555 465.705 399.991Z"/><path fill="#A9A9A9" d="M304.387 245.56C310.959 245.56 316.287 239.885 316.287 232.884C316.287 225.883 310.959 220.208 304.387 220.208C297.815 220.208 292.487 225.883 292.487 232.884C292.487 239.885 297.815 245.56 304.387 245.56Z"/><path fill="#fff" d="M303.208 237.72C302.94 237.72 302.679 237.628 302.465 237.457L302.452 237.446L299.655 235.167C299.525 235.061 299.417 234.93 299.335 234.779C299.253 234.628 299.2 234.462 299.179 234.29C299.157 234.117 299.168 233.942 299.21 233.774C299.252 233.606 299.325 233.448 299.424 233.31C299.524 233.172 299.648 233.057 299.789 232.97C299.93 232.883 300.086 232.826 300.248 232.803C300.41 232.781 300.575 232.792 300.732 232.837C300.89 232.882 301.038 232.96 301.167 233.066L302.979 234.546L307.259 228.597C307.359 228.459 307.482 228.343 307.624 228.256C307.765 228.169 307.921 228.113 308.083 228.09C308.244 228.067 308.409 228.079 308.566 228.124C308.724 228.168 308.872 228.246 309.001 228.352L309.001 228.352L308.975 228.391L309.002 228.352C309.263 228.566 309.434 228.881 309.477 229.229C309.52 229.577 309.432 229.929 309.232 230.208L304.197 237.202C304.081 237.363 303.931 237.493 303.759 237.583C303.588 237.672 303.4 237.719 303.209 237.718L303.208 237.72Z"/></g><defs><clipPath id="clip0_26:918"><rect width="504" height="400" fill="#fff"/></clipPath></defs></svg>